<svg width="32" height="31" viewBox="0 0 32 31" fill="none" xmlns="http://www.w3.org/2000/svg">
<path fill-rule="evenodd" clip-rule="evenodd" d="M13.6965 18.3689C12.0665 17.4656 10.96 15.7118 10.96 13.6978C10.96 10.7615 13.3116 8.37813 16.2072 8.37813C19.1027 8.37813 21.4544 10.7615 21.4544 13.6978C21.4544 15.7118 20.3478 17.4656 18.7178 18.3689C21.8322 19.4325 24.0776 22.4183 24.0776 25.9323C24.0776 27.3327 23.714 28.7091 23.023 29.9219C22.8829 30.1685 22.6224 30.3209 22.3414 30.3209H10.073C9.79199 30.3209 9.53148 30.1685 9.39138 29.9219C8.70036 28.7091 8.33674 27.3327 8.33674 25.9323C8.33674 22.4183 10.5822 19.4325 13.6965 18.3689ZM21.8684 28.725C22.2855 27.8569 22.5035 26.9018 22.5035 25.9323C22.5035 22.4095 19.682 19.549 16.2072 19.549C12.7324 19.549 9.91083 22.4095 9.91083 25.9323C9.91083 26.9018 10.1288 27.8569 10.546 28.725H21.8684ZM29.7908 20.7849C30.2079 19.9168 30.4259 18.9625 30.4259 17.9922C30.4259 14.4694 27.6044 11.6089 24.1296 11.6089C23.6951 11.6089 23.3425 11.2514 23.3425 10.811C23.3425 10.3713 23.6951 10.0131 24.1296 10.0131C28.4733 10.0131 32 13.5885 32 17.9922C32 19.3934 31.6364 20.769 30.9454 21.9818C30.8045 22.2292 30.5448 22.3808 30.2638 22.3808H24.7057C24.2712 22.3808 23.9186 22.0233 23.9186 21.5829C23.9186 21.1432 24.2712 20.7849 24.7057 20.7849H29.7908ZM2.67554 20.7459H7.76063C8.19508 20.7459 8.54767 21.1033 8.54767 21.5438C8.54767 21.9842 8.19508 22.3417 7.76063 22.3417H2.20253C1.92155 22.3417 1.66104 22.1893 1.52095 21.9427C0.829923 20.7299 0.466309 19.3535 0.466309 17.9531C0.466309 13.5494 3.99305 9.97397 8.33674 9.97397C8.77119 9.97397 9.12379 10.3314 9.12379 10.7719C9.12379 11.2123 8.77119 11.5698 8.33674 11.5698C4.86195 11.5698 2.0404 14.4303 2.0404 17.9531C2.0404 18.9226 2.25841 19.8777 2.67554 20.7459ZM16.2072 9.97397C18.2346 9.97397 19.8803 11.6424 19.8803 13.6978C19.8803 15.7525 18.2346 17.4209 16.2072 17.4209C14.1798 17.4209 12.534 15.7525 12.534 13.6978C12.534 11.6424 14.1798 9.97397 16.2072 9.97397ZM23.6841 0C21.0782 0 18.9618 2.1456 18.9618 4.7875C18.9618 7.42941 21.0782 9.57501 23.6841 9.57501C26.29 9.57501 28.4064 7.42941 28.4064 4.7875C28.4064 2.1456 26.29 0 23.6841 0ZM9.12379 0C6.51789 0 4.40153 2.1456 4.40153 4.7875C4.40153 7.42941 6.51789 9.57501 9.12379 9.57501C11.7297 9.57501 13.8461 7.42941 13.8461 4.7875C13.8461 2.1456 11.7297 0 9.12379 0ZM23.6841 1.59583C25.4219 1.59583 26.8323 3.0257 26.8323 4.7875C26.8323 6.54931 25.4219 7.97917 23.6841 7.97917C21.9463 7.97917 20.5359 6.54931 20.5359 4.7875C20.5359 3.0257 21.9463 1.59583 23.6841 1.59583ZM9.12379 1.59583C10.8616 1.59583 12.272 3.0257 12.272 4.7875C12.272 6.54931 10.8616 7.97917 9.12379 7.97917C7.386 7.97917 5.97561 6.54931 5.97561 4.7875C5.97561 3.0257 7.386 1.59583 9.12379 1.59583Z" fill="#43573B"/>
</svg>
