<svg width="34" height="40" viewBox="0 0 34 40" fill="none" xmlns="http://www.w3.org/2000/svg">
<path d="M29.5735 5.31348H31.4223C32.1002 5.31348 32.6548 5.86811 32.6548 6.546V11.4761C32.6548 12.154 32.1002 12.7086 31.4223 12.7086H29.5735" stroke="#43573B" stroke-width="1.23252"/>
<path d="M29.5735 15.7893H31.4223C32.1002 15.7893 32.6548 16.3439 32.6548 17.0218V21.9519C32.6548 22.6298 32.1002 23.1844 31.4223 23.1844H29.5735" stroke="#43573B" stroke-width="1.23252"/>
<path d="M29.5735 26.2676H31.4223C32.1002 26.2676 32.6548 26.8222 32.6548 27.5001V32.4302C32.6548 33.1081 32.1002 33.6627 31.4223 33.6627H29.5735" stroke="#43573B" stroke-width="1.23252"/>
<path d="M0.609375 2.23252C0.609375 1.55463 1.16401 1 1.8419 1H28.9573C29.6352 1 30.1899 1.55463 30.1899 2.23252V37.9756C30.1899 38.6535 29.6352 39.2081 28.9573 39.2081H1.8419C1.16401 39.2081 0.609375 38.6535 0.609375 37.9756V2.23252Z" stroke="#43573B" stroke-width="1.23252"/>
<path d="M4.30688 2.84863V37.3592" stroke="#43573B" stroke-width="1.23252"/>
<path d="M13.4273 24.4173C14.2285 24.0475 15.3377 23.3697 15.3377 22.7534C15.3377 22.4453 15.2145 22.1988 15.0912 22.1371C13.5506 21.2744 13.3041 18.5628 13.1808 18.5628C12.6878 18.5628 12.3181 17.2687 12.3181 16.4675C12.3181 15.7897 12.503 15.7897 12.8727 15.6048V15.4815C12.8727 13.263 14.2901 11.4758 16.5703 11.4758C18.8504 11.4758 20.4527 13.3246 20.4527 15.5431V15.6664C20.8225 15.8513 20.9457 15.9745 20.9457 16.6524C20.9457 17.5152 20.6376 18.6861 20.1446 18.6861C20.0213 18.6861 19.6516 21.336 18.1725 22.1988C18.0493 22.2604 17.926 22.3836 17.926 22.6918C17.926 23.4313 19.0969 24.0475 19.8981 24.4173C20.8841 24.9103 25.2595 25.3417 25.2595 29.9636H7.94263C7.94263 25.3417 12.1948 25.0336 13.4273 24.4173Z" stroke="#43573B" stroke-width="1.23252"/>
</svg>
