<svg width="37" height="30" viewBox="0 0 37 30" fill="none" xmlns="http://www.w3.org/2000/svg">
<path fill-rule="evenodd" clip-rule="evenodd" d="M18.3537 11.6436C17.6296 11.9037 17.1106 12.6056 17.1106 13.4294C17.1106 14.4747 17.946 15.3231 18.9753 15.3231C19.3184 15.3231 19.5969 15.6059 19.5969 15.9543C19.5969 16.3027 19.3184 16.5855 18.9753 16.5855C18.6334 16.5855 18.3556 16.3046 18.3537 15.9581V15.9505C18.3519 15.604 18.074 15.3231 17.7322 15.3231C17.3891 15.3231 17.1106 15.6059 17.1106 15.9543C17.1106 16.778 17.6296 17.48 18.3537 17.74V18.1636C18.3537 18.512 18.6322 18.7948 18.9753 18.7948C19.3184 18.7948 19.5969 18.512 19.5969 18.1636V17.74C20.321 17.48 20.84 16.778 20.84 15.9543C20.84 14.909 20.0046 14.0606 18.9753 14.0606C18.6322 14.0606 18.3537 13.7778 18.3537 13.4294C18.3537 13.081 18.6322 12.7982 18.9753 12.7982C19.3184 12.7982 19.5969 13.081 19.5969 13.4294C19.5969 13.7778 19.8754 14.0606 20.2185 14.0606C20.5616 14.0606 20.84 13.7778 20.84 13.4294C20.84 12.6056 20.321 11.9037 19.5969 11.6436V11.2201C19.5969 10.8717 19.3184 10.5889 18.9753 10.5889C18.6322 10.5889 18.3537 10.8717 18.3537 11.2201V11.6436Z" fill="#43573B"/>
<path fill-rule="evenodd" clip-rule="evenodd" d="M18.9752 8.37964C15.5448 8.37964 12.7595 11.2082 12.7595 14.6919C12.7595 18.1757 15.5448 21.0042 18.9752 21.0042C22.4057 21.0042 25.191 18.1757 25.191 14.6919C25.191 11.2082 22.4057 8.37964 18.9752 8.37964ZM18.9752 9.64209C21.7195 9.64209 23.9478 11.905 23.9478 14.6919C23.9478 17.4788 21.7195 19.7417 18.9752 19.7417C16.231 19.7417 14.0027 17.4788 14.0027 14.6919C14.0027 11.905 16.231 9.64209 18.9752 9.64209Z" fill="#43573B"/>
<path fill-rule="evenodd" clip-rule="evenodd" d="M18.0883 5.85597H2.81443C1.78448 5.85597 0.949707 6.70371 0.949707 7.74965V21.6366C0.949707 22.6826 1.78448 23.5303 2.81443 23.5303H4.98185L7.7696 28.4337C8.01699 28.8686 8.42412 29.1861 8.90149 29.3162C9.37948 29.4462 9.88854 29.378 10.3168 29.1268L19.8623 23.5303H35.1362C36.1662 23.5303 37.0009 22.6826 37.0009 21.6366V7.74965C37.0009 6.70371 36.1662 5.85597 35.1362 5.85597H32.9688L30.181 0.952597C29.9336 0.517682 29.5265 0.200174 29.0491 0.0701413C28.5712 -0.0598915 28.0621 0.0082812 27.6338 0.25951L18.0883 5.85597ZM11.959 26.7067C10.8998 25.3817 9.10909 24.8944 7.539 25.5035L8.84617 27.8025C8.92884 27.9477 9.06434 28.0537 9.22346 28.0966C9.38258 28.1402 9.55227 28.1175 9.69524 28.0335L11.959 26.7067ZM17.376 23.5303H6.41706L6.91121 24.3995C9.08547 23.4565 11.6277 24.1483 13.0461 26.0691L17.376 23.5303ZM2.19285 18.5253V21.6366C2.19285 21.9851 2.47132 22.2679 2.81443 22.2679H5.87816C5.60591 20.3332 4.09859 18.8024 2.19285 18.5253ZM30.8194 7.11842H7.13125C6.8447 9.75127 4.78605 11.8425 2.19285 12.1335V17.2528C4.78543 17.5438 6.8447 19.6344 7.13125 22.2679H30.8194C31.1059 19.635 33.1646 17.5438 35.7578 17.2528V12.1335C33.1652 11.8425 31.1059 9.7519 30.8194 7.11842ZM35.7578 18.5253C33.8527 18.8018 32.3453 20.3325 32.0725 22.2679H35.1362C35.4793 22.2679 35.7578 21.9851 35.7578 21.6366V18.5253ZM5.87816 7.11842H2.81443C2.47132 7.11842 2.19285 7.40121 2.19285 7.74965V10.861C4.09797 10.5845 5.60529 9.05377 5.87816 7.11842ZM32.0725 7.11842C32.3447 9.05313 33.852 10.5839 35.7578 10.861V7.74965C35.7578 7.40121 35.4793 7.11842 35.1362 7.11842H32.0725ZM24.9045 3.31717L20.5746 5.85597H31.5336L31.0394 4.98677C28.8652 5.92982 26.3229 5.238 24.9045 3.31717ZM30.4116 3.88275L29.1045 1.58382C29.0218 1.43864 28.8863 1.3326 28.7272 1.28967C28.568 1.24612 28.3984 1.26884 28.2554 1.3528L25.9916 2.67963C27.0508 4.00458 28.8415 4.49189 30.4116 3.88275Z" fill="#43573B"/>
</svg>
