<svg width="37" height="29" viewBox="0 0 37 29" fill="none" xmlns="http://www.w3.org/2000/svg">
<path d="M4.58272 28.053H35.3555H36.5021C36.7653 28.053 36.978 27.8403 36.978 27.5771C36.978 27.3139 36.7653 27.1012 36.5021 27.1012H35.7449L35.1392 24.1915L35.7882 21.2783H36.5021C36.7653 21.2783 36.978 21.0656 36.978 20.8024C36.978 20.5392 36.7653 20.3265 36.5021 20.3265H35.7052C35.7882 20.1354 35.835 19.9262 35.835 19.7063V15.1273C35.835 14.9074 35.7882 14.6983 35.7052 14.5072H36.5021C36.7653 14.5072 36.978 14.2945 36.978 14.0313C36.978 13.7681 36.7653 13.5554 36.5021 13.5554H35.7449L35.1392 10.6457L35.7882 7.7325H36.5021C36.7653 7.7325 36.978 7.51978 36.978 7.25658C36.978 6.99338 36.7653 6.78065 36.5021 6.78065H35.7052C35.7882 6.58956 35.835 6.38045 35.835 6.16051V1.58155C35.835 0.712627 35.1284 0.00595266 34.2594 0.00595266H2.50235C1.63343 -0.0120748 0.926758 0.6946 0.926758 1.56352V6.14248C0.926758 6.89603 1.45676 7.52699 2.16344 7.68202C1.40629 8.35264 0.926758 9.33334 0.926758 10.4222V10.844C0.926758 11.9329 1.40629 12.9136 2.16344 13.5806C1.45676 13.7356 0.926758 14.3666 0.926758 15.1201V19.6991C0.926758 20.4526 1.45676 21.0836 2.16344 21.2386C1.40629 21.9093 0.926758 22.8863 0.926758 23.9752V24.397C0.926758 26.4125 2.56725 28.053 4.58272 28.053ZM27.4883 20.3192V14.4964H29.7526V20.3192H27.4883ZM10.6471 20.3192V14.4964H26.5365V20.3192H10.6471ZM30.708 14.4964H34.2594C34.602 14.4964 34.8796 14.774 34.8796 15.1165V19.6955C34.8796 20.038 34.602 20.3156 34.2594 20.3156H30.708V14.4964ZM34.8796 1.56352V6.14248C34.8796 6.485 34.602 6.76263 34.2594 6.76263H27.4883V0.943378H34.2558C34.602 0.943378 34.8796 1.221 34.8796 1.56352ZM9.87917 6.76623V0.943378H26.5365V6.76623H9.87917ZM6.65587 6.76623V0.943378H8.92372V6.76623H6.65587ZM2.50235 6.76623C2.15983 6.76623 1.88221 6.48861 1.88221 6.14609V1.56713C1.88221 1.22461 2.15983 0.946984 2.50235 0.946984H5.70042V6.76984H4.58272H2.50235V6.76623ZM1.88221 10.844V10.4222C1.88221 8.93313 3.09365 7.72169 4.58272 7.72169H34.2594H34.8111L34.2703 10.1554H4.53585C4.27265 10.1554 4.05992 10.3681 4.05992 10.6313C4.05992 10.8945 4.27265 11.1072 4.53585 11.1072H34.2631L34.7714 13.5409H34.2594H4.58272C3.09365 13.5445 1.88221 12.3331 1.88221 10.844ZM2.50235 20.3192C2.15983 20.3192 1.88221 20.0416 1.88221 19.6991V15.1201C1.88221 14.7776 2.15983 14.5 2.50235 14.5H4.58272H9.69169V20.3229H4.58272H2.50235V20.3192ZM1.88221 23.9752C1.88221 22.4861 3.09365 21.2747 4.58272 21.2747H34.2594H34.8111L34.2703 23.7084H4.53585C4.27265 23.7084 4.05992 23.9211 4.05992 24.1843C4.05992 24.4475 4.27265 24.6602 4.53585 24.6602H34.2631L34.7714 27.0939H4.58272C3.09365 27.0939 1.88221 25.8825 1.88221 24.3934V23.9752ZM23.2555 3.853C23.2555 4.1162 23.0428 4.32893 22.7796 4.32893H13.6072C13.344 4.32893 13.1313 4.1162 13.1313 3.853C13.1313 3.5898 13.344 3.37708 13.6072 3.37708H22.7796C23.0428 3.37708 23.2555 3.5898 23.2555 3.853ZM30.1744 3.853C30.1744 3.5898 30.3872 3.37708 30.6504 3.37708H31.8726C32.1358 3.37708 32.3485 3.5898 32.3485 3.853C32.3485 4.1162 32.1358 4.32893 31.8726 4.32893H30.6504C30.3872 4.33253 30.1744 4.1162 30.1744 3.853ZM5.64633 15.8376C4.81707 15.8376 4.14285 16.5119 4.14285 17.3411C4.14285 18.1704 4.81707 18.8446 5.64633 18.8446C6.4756 18.8446 7.14982 18.1704 7.14982 17.3411C7.14982 16.5119 6.47199 15.8376 5.64633 15.8376ZM5.64633 17.8891C5.34347 17.8891 5.0983 17.644 5.0983 17.3411C5.0983 17.0383 5.34347 16.7931 5.64633 16.7931C5.94919 16.7931 6.19437 17.0383 6.19437 17.3411C6.19076 17.644 5.94559 17.8891 5.64633 17.8891ZM23.6088 17.4096C23.6088 17.6728 23.3961 17.8855 23.1329 17.8855H13.7839C13.5207 17.8855 13.308 17.6728 13.308 17.4096C13.308 17.1464 13.5207 16.9337 13.7839 16.9337H23.1329C23.3961 16.9301 23.6088 17.1464 23.6088 17.4096Z" fill="#43573B"/>
</svg>
